<mxfile host="Electron" agent="Mozilla/5.0 (Windows NT 10.0; Win64; x64) AppleWebKit/537.36 (KHTML, like Gecko) draw.io/28.1.2 Chrome/138.0.7204.243 Electron/37.4.0 Safari/537.36" scale="1" border="0" version="28.1.2">
  <diagram name="Page-1" id="kUkFJ0ANv1tYq-xvZ-XQ">
    <mxGraphModel dx="1064" dy="450" grid="1" gridSize="10" guides="1" tooltips="1" connect="1" arrows="1" fold="1" page="1" pageScale="1" pageWidth="850" pageHeight="1100" math="0" shadow="0">
      <root>
        <mxCell id="0" />
        <mxCell id="1" parent="0" />
        <mxCell id="31rFBT-Zo2xIqpjW_B9C-1" value="VPC" style="points=[[0,0],[0.25,0],[0.5,0],[0.75,0],[1,0],[1,0.25],[1,0.5],[1,0.75],[1,1],[0.75,1],[0.5,1],[0.25,1],[0,1],[0,0.75],[0,0.5],[0,0.25]];outlineConnect=0;gradientColor=none;html=1;whiteSpace=wrap;fontSize=12;fontStyle=0;container=0;pointerEvents=0;collapsible=0;recursiveResize=0;shape=mxgraph.aws4.group;grIcon=mxgraph.aws4.group_vpc;strokeColor=#248814;fillColor=none;verticalAlign=top;align=left;spacingLeft=30;fontColor=#AAB7B8;dashed=0;" parent="1" vertex="1">
          <mxGeometry x="140" y="80" width="340" height="320" as="geometry" />
        </mxCell>
        <mxCell id="nNgTOi0-WjG4UQ7CGZGj-37" value="Region" style="sketch=0;outlineConnect=0;gradientColor=none;html=1;whiteSpace=wrap;fontSize=12;fontStyle=0;shape=mxgraph.aws4.group;grIcon=mxgraph.aws4.group_region;strokeColor=#879196;fillColor=none;verticalAlign=top;align=left;spacingLeft=30;fontColor=#879196;dashed=1;" parent="1" vertex="1">
          <mxGeometry x="80" y="40" width="440" height="380" as="geometry" />
        </mxCell>
        <mxCell id="nNgTOi0-WjG4UQ7CGZGj-39" value="AWS Cloud" style="sketch=0;outlineConnect=0;gradientColor=none;html=1;whiteSpace=wrap;fontSize=12;fontStyle=0;shape=mxgraph.aws4.group;grIcon=mxgraph.aws4.group_aws_cloud;strokeColor=#858B94;fillColor=none;verticalAlign=top;align=left;spacingLeft=30;fontColor=#858B94;dashed=0;" parent="1" vertex="1">
          <mxGeometry x="50" y="8" width="500" height="442" as="geometry" />
        </mxCell>
        <mxCell id="31rFBT-Zo2xIqpjW_B9C-4" value="Availability zone" style="sketch=0;outlineConnect=0;gradientColor=none;html=1;whiteSpace=wrap;fontSize=12;fontStyle=0;shape=mxgraph.aws4.group;grIcon=mxgraph.aws4.group_availability_zone;strokeColor=#545B64;fillColor=none;verticalAlign=top;align=left;spacingLeft=30;fontColor=#545B64;dashed=1;container=0;" parent="1" vertex="1">
          <mxGeometry x="160" y="170" width="130" height="210" as="geometry" />
        </mxCell>
        <mxCell id="31rFBT-Zo2xIqpjW_B9C-21" value="Availability zone" style="sketch=0;outlineConnect=0;gradientColor=none;html=1;whiteSpace=wrap;fontSize=12;fontStyle=0;shape=mxgraph.aws4.group;grIcon=mxgraph.aws4.group_availability_zone;strokeColor=#545B64;fillColor=none;verticalAlign=top;align=left;spacingLeft=30;fontColor=#545B64;dashed=1;container=0;" parent="1" vertex="1">
          <mxGeometry x="328" y="170" width="130" height="210" as="geometry" />
        </mxCell>
        <mxCell id="31rFBT-Zo2xIqpjW_B9C-37" value="&lt;font style=&quot;font-size: 5px;&quot;&gt;Internet Gateway&lt;/font&gt;" style="sketch=0;outlineConnect=0;fontColor=#232F3E;gradientColor=none;fillColor=#4D27AA;strokeColor=none;dashed=0;verticalLabelPosition=bottom;verticalAlign=top;align=center;html=1;fontSize=12;fontStyle=0;aspect=fixed;pointerEvents=1;shape=mxgraph.aws4.internet_gateway;" parent="1" vertex="1">
          <mxGeometry x="290" y="100" width="38" height="38" as="geometry" />
        </mxCell>
        <mxCell id="31rFBT-Zo2xIqpjW_B9C-41" value="" style="endArrow=classic;startArrow=classic;html=1;rounded=0;fontSize=5;dashed=1;entryX=0.5;entryY=0;entryDx=0;entryDy=0;" parent="1" source="31rFBT-Zo2xIqpjW_B9C-37" target="31rFBT-Zo2xIqpjW_B9C-13" edge="1">
          <mxGeometry width="50" height="50" relative="1" as="geometry">
            <mxPoint x="248.57000000000005" y="341.0476666666667" as="sourcePoint" />
            <mxPoint x="246.32000000000005" y="247.81667755279773" as="targetPoint" />
            <Array as="points">
              <mxPoint x="270" y="120" />
              <mxPoint x="224" y="120" />
            </Array>
          </mxGeometry>
        </mxCell>
        <mxCell id="nNgTOi0-WjG4UQ7CGZGj-10" value="" style="group" parent="1" vertex="1" connectable="0">
          <mxGeometry x="170" y="200" width="110" height="170" as="geometry" />
        </mxCell>
        <mxCell id="31rFBT-Zo2xIqpjW_B9C-13" value="Public subnet" style="points=[[0,0],[0.25,0],[0.5,0],[0.75,0],[1,0],[1,0.25],[1,0.5],[1,0.75],[1,1],[0.75,1],[0.5,1],[0.25,1],[0,1],[0,0.75],[0,0.5],[0,0.25]];outlineConnect=0;gradientColor=none;html=1;whiteSpace=wrap;fontSize=12;fontStyle=0;container=0;pointerEvents=0;collapsible=0;recursiveResize=0;shape=mxgraph.aws4.group;grIcon=mxgraph.aws4.group_security_group;grStroke=0;strokeColor=#248814;fillColor=#E9F3E6;verticalAlign=top;align=left;spacingLeft=30;fontColor=#248814;dashed=0;" parent="nNgTOi0-WjG4UQ7CGZGj-10" vertex="1">
          <mxGeometry width="110" height="61.81818181818181" as="geometry" />
        </mxCell>
        <mxCell id="31rFBT-Zo2xIqpjW_B9C-20" value="Private subnet" style="points=[[0,0],[0.25,0],[0.5,0],[0.75,0],[1,0],[1,0.25],[1,0.5],[1,0.75],[1,1],[0.75,1],[0.5,1],[0.25,1],[0,1],[0,0.75],[0,0.5],[0,0.25]];outlineConnect=0;gradientColor=none;html=1;whiteSpace=wrap;fontSize=12;fontStyle=0;container=0;pointerEvents=0;collapsible=0;recursiveResize=0;shape=mxgraph.aws4.group;grIcon=mxgraph.aws4.group_security_group;grStroke=0;strokeColor=#147EBA;fillColor=#E6F2F8;verticalAlign=top;align=left;spacingLeft=30;fontColor=#147EBA;dashed=0;" parent="nNgTOi0-WjG4UQ7CGZGj-10" vertex="1">
          <mxGeometry y="90" width="110" height="80" as="geometry" />
        </mxCell>
        <mxCell id="31rFBT-Zo2xIqpjW_B9C-39" value="" style="group" parent="nNgTOi0-WjG4UQ7CGZGj-10" vertex="1" connectable="0">
          <mxGeometry x="30" y="26.272727272727273" width="50" height="40.696969696969695" as="geometry" />
        </mxCell>
        <mxCell id="nNgTOi0-WjG4UQ7CGZGj-6" value="" style="group" parent="31rFBT-Zo2xIqpjW_B9C-39" vertex="1" connectable="0">
          <mxGeometry width="50" height="40.696969696969695" as="geometry" />
        </mxCell>
        <mxCell id="31rFBT-Zo2xIqpjW_B9C-36" value="" style="sketch=0;outlineConnect=0;fontColor=#232F3E;gradientColor=none;fillColor=#4D27AA;strokeColor=none;dashed=0;verticalLabelPosition=bottom;verticalAlign=top;align=center;html=1;fontSize=12;fontStyle=0;aspect=fixed;pointerEvents=1;shape=mxgraph.aws4.nat_gateway;" parent="nNgTOi0-WjG4UQ7CGZGj-6" vertex="1">
          <mxGeometry x="11.819999999999993" width="24.5" height="24.5" as="geometry" />
        </mxCell>
        <mxCell id="31rFBT-Zo2xIqpjW_B9C-38" value="NAT Gateway" style="text;html=1;align=center;verticalAlign=middle;resizable=0;points=[];autosize=1;strokeColor=none;fillColor=none;fontSize=5;" parent="nNgTOi0-WjG4UQ7CGZGj-6" vertex="1">
          <mxGeometry y="20.09090909090909" width="50" height="20" as="geometry" />
        </mxCell>
        <mxCell id="nNgTOi0-WjG4UQ7CGZGj-9" value="" style="group" parent="nNgTOi0-WjG4UQ7CGZGj-10" vertex="1" connectable="0">
          <mxGeometry x="35" y="120.54545454545455" width="40" height="49.45454545454545" as="geometry" />
        </mxCell>
        <mxCell id="nNgTOi0-WjG4UQ7CGZGj-7" value="" style="outlineConnect=0;dashed=0;verticalLabelPosition=bottom;verticalAlign=top;align=center;html=1;shape=mxgraph.aws3.instance;fillColor=#F58534;gradientColor=none;" parent="nNgTOi0-WjG4UQ7CGZGj-9" vertex="1">
          <mxGeometry x="5" width="30" height="34" as="geometry" />
        </mxCell>
        <mxCell id="nNgTOi0-WjG4UQ7CGZGj-8" value="Node" style="text;html=1;align=center;verticalAlign=middle;resizable=0;points=[];autosize=1;strokeColor=none;fillColor=none;fontSize=5;" parent="nNgTOi0-WjG4UQ7CGZGj-9" vertex="1">
          <mxGeometry y="28.848484848484848" width="40" height="20" as="geometry" />
        </mxCell>
        <mxCell id="nNgTOi0-WjG4UQ7CGZGj-11" value="" style="group" parent="1" vertex="1" connectable="0">
          <mxGeometry x="340" y="200" width="110" height="170" as="geometry" />
        </mxCell>
        <mxCell id="nNgTOi0-WjG4UQ7CGZGj-12" value="Public subnet" style="points=[[0,0],[0.25,0],[0.5,0],[0.75,0],[1,0],[1,0.25],[1,0.5],[1,0.75],[1,1],[0.75,1],[0.5,1],[0.25,1],[0,1],[0,0.75],[0,0.5],[0,0.25]];outlineConnect=0;gradientColor=none;html=1;whiteSpace=wrap;fontSize=12;fontStyle=0;container=0;pointerEvents=0;collapsible=0;recursiveResize=0;shape=mxgraph.aws4.group;grIcon=mxgraph.aws4.group_security_group;grStroke=0;strokeColor=#248814;fillColor=#E9F3E6;verticalAlign=top;align=left;spacingLeft=30;fontColor=#248814;dashed=0;" parent="nNgTOi0-WjG4UQ7CGZGj-11" vertex="1">
          <mxGeometry width="110" height="61.81818181818181" as="geometry" />
        </mxCell>
        <mxCell id="nNgTOi0-WjG4UQ7CGZGj-13" value="Private subnet" style="points=[[0,0],[0.25,0],[0.5,0],[0.75,0],[1,0],[1,0.25],[1,0.5],[1,0.75],[1,1],[0.75,1],[0.5,1],[0.25,1],[0,1],[0,0.75],[0,0.5],[0,0.25]];outlineConnect=0;gradientColor=none;html=1;whiteSpace=wrap;fontSize=12;fontStyle=0;container=0;pointerEvents=0;collapsible=0;recursiveResize=0;shape=mxgraph.aws4.group;grIcon=mxgraph.aws4.group_security_group;grStroke=0;strokeColor=#147EBA;fillColor=#E6F2F8;verticalAlign=top;align=left;spacingLeft=30;fontColor=#147EBA;dashed=0;" parent="nNgTOi0-WjG4UQ7CGZGj-11" vertex="1">
          <mxGeometry y="90" width="110" height="80" as="geometry" />
        </mxCell>
        <mxCell id="nNgTOi0-WjG4UQ7CGZGj-14" value="" style="group" parent="nNgTOi0-WjG4UQ7CGZGj-11" vertex="1" connectable="0">
          <mxGeometry x="30" y="26.272727272727273" width="50" height="40.696969696969695" as="geometry" />
        </mxCell>
        <mxCell id="nNgTOi0-WjG4UQ7CGZGj-15" value="" style="group" parent="nNgTOi0-WjG4UQ7CGZGj-14" vertex="1" connectable="0">
          <mxGeometry width="50" height="40.696969696969695" as="geometry" />
        </mxCell>
        <mxCell id="nNgTOi0-WjG4UQ7CGZGj-16" value="" style="sketch=0;outlineConnect=0;fontColor=#232F3E;gradientColor=none;fillColor=#4D27AA;strokeColor=none;dashed=0;verticalLabelPosition=bottom;verticalAlign=top;align=center;html=1;fontSize=12;fontStyle=0;aspect=fixed;pointerEvents=1;shape=mxgraph.aws4.nat_gateway;" parent="nNgTOi0-WjG4UQ7CGZGj-15" vertex="1">
          <mxGeometry x="11.819999999999993" width="24.5" height="24.5" as="geometry" />
        </mxCell>
        <mxCell id="nNgTOi0-WjG4UQ7CGZGj-17" value="NAT Gateway" style="text;html=1;align=center;verticalAlign=middle;resizable=0;points=[];autosize=1;strokeColor=none;fillColor=none;fontSize=5;" parent="nNgTOi0-WjG4UQ7CGZGj-15" vertex="1">
          <mxGeometry y="20.09090909090909" width="50" height="20" as="geometry" />
        </mxCell>
        <mxCell id="nNgTOi0-WjG4UQ7CGZGj-19" value="" style="group" parent="nNgTOi0-WjG4UQ7CGZGj-11" vertex="1" connectable="0">
          <mxGeometry x="35" y="120.54545454545455" width="40" height="49.45454545454545" as="geometry" />
        </mxCell>
        <mxCell id="nNgTOi0-WjG4UQ7CGZGj-20" value="" style="outlineConnect=0;dashed=0;verticalLabelPosition=bottom;verticalAlign=top;align=center;html=1;shape=mxgraph.aws3.instance;fillColor=#F58534;gradientColor=none;" parent="nNgTOi0-WjG4UQ7CGZGj-19" vertex="1">
          <mxGeometry x="5" width="30" height="34" as="geometry" />
        </mxCell>
        <mxCell id="nNgTOi0-WjG4UQ7CGZGj-21" value="Node" style="text;html=1;align=center;verticalAlign=middle;resizable=0;points=[];autosize=1;strokeColor=none;fillColor=none;fontSize=5;" parent="nNgTOi0-WjG4UQ7CGZGj-19" vertex="1">
          <mxGeometry y="28.848484848484848" width="40" height="20" as="geometry" />
        </mxCell>
        <mxCell id="nNgTOi0-WjG4UQ7CGZGj-35" value="" style="endArrow=classic;startArrow=classic;html=1;rounded=0;fontSize=5;dashed=1;" parent="1" source="31rFBT-Zo2xIqpjW_B9C-37" target="nNgTOi0-WjG4UQ7CGZGj-12" edge="1">
          <mxGeometry width="50" height="50" relative="1" as="geometry">
            <mxPoint x="386" y="120" as="sourcePoint" />
            <mxPoint x="393" y="200" as="targetPoint" />
            <Array as="points">
              <mxPoint x="366" y="121" />
              <mxPoint x="395" y="121" />
            </Array>
          </mxGeometry>
        </mxCell>
        <mxCell id="nNgTOi0-WjG4UQ7CGZGj-41" value="" style="rounded=0;whiteSpace=wrap;html=1;fillColor=none;dashed=1;strokeColor=#FF8000;" parent="1" vertex="1">
          <mxGeometry x="197" y="319" width="230" height="45" as="geometry" />
        </mxCell>
        <mxCell id="nNgTOi0-WjG4UQ7CGZGj-43" value="" style="group" parent="1" vertex="1" connectable="0">
          <mxGeometry x="280" y="316.77" width="58" height="57" as="geometry" />
        </mxCell>
        <mxCell id="nNgTOi0-WjG4UQ7CGZGj-46" value="" style="group" parent="nNgTOi0-WjG4UQ7CGZGj-43" vertex="1" connectable="0">
          <mxGeometry x="5" y="2" width="50" height="52" as="geometry" />
        </mxCell>
        <mxCell id="nNgTOi0-WjG4UQ7CGZGj-42" value="&lt;font style=&quot;color: rgb(255, 128, 0); font-size: 4px;&quot;&gt;Auto Scaling&lt;br&gt;Group&lt;/font&gt;" style="text;html=1;align=center;verticalAlign=middle;resizable=0;points=[];autosize=1;strokeColor=none;fillColor=none;fontSize=5;" parent="nNgTOi0-WjG4UQ7CGZGj-46" vertex="1">
          <mxGeometry y="22" width="50" height="30" as="geometry" />
        </mxCell>
        <mxCell id="nNgTOi0-WjG4UQ7CGZGj-45" value="" style="sketch=0;points=[[0,0,0],[0.25,0,0],[0.5,0,0],[0.75,0,0],[1,0,0],[0,1,0],[0.25,1,0],[0.5,1,0],[0.75,1,0],[1,1,0],[0,0.25,0],[0,0.5,0],[0,0.75,0],[1,0.25,0],[1,0.5,0],[1,0.75,0]];outlineConnect=0;fontColor=#232F3E;fillColor=#ED7100;strokeColor=#ffffff;dashed=0;verticalLabelPosition=bottom;verticalAlign=top;align=center;html=1;fontSize=12;fontStyle=0;aspect=fixed;shape=mxgraph.aws4.resourceIcon;resIcon=mxgraph.aws4.auto_scaling2;" parent="nNgTOi0-WjG4UQ7CGZGj-46" vertex="1">
          <mxGeometry x="12" width="26" height="26" as="geometry" />
        </mxCell>
      </root>
    </mxGraphModel>
  </diagram>
</mxfile>
